<svg viewBox="0 0 256 256" xmlns="http://www.w3.org/2000/svg"><path d="m124.5 20c1.9-1.1 5-1.1 6.9 0l88.4 51c1.9 1.1 3.5 3.8 3.5 6v102c0 2.2-1.6 4.9-3.5 6l-88.4 51c-1.9 1.1-5 1.1-6.9 0l-88.4-51c-1.9-1.1-3.5-3.8-3.5-6v-102c0-2.2 1.6-4.9 3.5-6z" fill="#0b1220"/><path d="m124.5 20c1.9-1.1 5-1.1 6.9 0l88.4 51c1.9 1.1 3.5 3.8 3.5 6v102c0 2.2-1.6 4.9-3.5 6l-88.4 51c-1.9 1.1-5 1.1-6.9 0l-88.4-51c-1.9-1.1-3.5-3.8-3.5-6v-102c0-2.2 1.6-4.9 3.5-6z" fill="none" stroke="#4fd1c5" stroke-width="8"/><g fill="#4fd1c5"><path d="m125.5 121.7c0 2.2-1.6 4.9-3.5 5.9l-29 15.9c-1.9 1.1-3.5.1-3.5-2.1v-3.8c0-2.2 1.6-4.9 3.5-5.9l17.2-9.4c1.9-1 1.9-2.8 0-3.8l-17.2-9.4c-1.9-1-3.5-3.7-3.5-5.9v-3.8c0-2.2 1.6-3.1 3.5-2.1l29 15.9c1.9 1.1 3.5 3.7 3.5 5.9v2.5z"/><path d="m129.8 154.1c0-2.2 1.8-4 4-4h28.7c2.2 0 4 1.8 4 4v2.4c0 2.2-1.8 4-4 4h-28.7c-2.2 0-4-1.8-4-4z"/></g></svg>